# xmcd
#
# Track frame offsets:
#	150
#	13677
#	24015
#	35247
#	43885
#	61362
#	71982
#	87285
#	97905
#	113115
#	125965
#	140102
#	151330
#	159127
#	169290
#	184384
#	200147
#	211567
#	222295
#	233875
#
# Disc length: 3265 seconds
#
# Revision: 1
# Processed by: cddbd v1.5.1PL0 Copyright (c) Steve Scherf et al.
# Submitted via: EasyCDDAExtractor 7.5.0.1
#
DISCID=260cbf14
DTITLE=Tennessee Ernie Ford - Amazing Grace: Gaither Gospel Series - Disc 1
DYEAR=1998
DGENRE=Gospel
TTITLE0=Stand By Me
TTITLE1=When God Dips His Love In My Heart
TTITLE2=He Knows What I Need
TTITLE3=Others
TTITLE4=What A Friend We Have In Jesus
TTITLE5=Sweet Hour of Prayer
TTITLE6=Cone On Down
TTITLE7=Blessed Assurance
TTITLE8=I Can Tell You The Time
TTITLE9=Just A Little Talk With Jesus
TTITLE10=Life's Railway To Heaven
TTITLE11=Saved By Grace
TTITLE12=My Task
TTITLE13=No Tears In Heaven
TTITLE14=Peace In The Valley
TTITLE15=Nearer My God To Thee
TTITLE16=His Amazing Grace
TTITLE17=Just A Closer Walk With Thee
TTITLE18=On The Jericho Road
TTITLE19=A Beautiful Life
EXTD=
EXTT0=
EXTT1=
EXTT2=
EXTT3=
EXTT4=
EXTT5=
EXTT6=
EXTT7=
EXTT8=
EXTT9=
EXTT10=
EXTT11=
EXTT12=
EXTT13=
EXTT14=
EXTT15=
EXTT16=
EXTT17=
EXTT18=
EXTT19=
PLAYORDER=
